<?xml version="1.0" encoding="UTF-8"?>
<!DOCTYPE svg PUBLIC "-//W3C//DTD SVG 1.1//EN" "http://www.w3.org/Graphics/SVG/1.1/DTD/svg11.dtd">
<!-- Creator: CorelDRAW 2020 (64-Bit) -->
<svg xmlns="http://www.w3.org/2000/svg" xml:space="preserve" width="38.0171mm" height="20mm" version="1.1" style="shape-rendering:geometricPrecision; text-rendering:geometricPrecision; image-rendering:optimizeQuality; fill-rule:evenodd; clip-rule:evenodd"
viewBox="0 0 4896.73 2576.07"
 xmlns:xlink="http://www.w3.org/1999/xlink"
 xmlns:xodm="http://www.corel.com/coreldraw/odm/2003">
 <defs>
  <style type="text/css">
   <![CDATA[
    .fil0 {fill:#EF7F1A;fill-rule:nonzero}
    .fil1 {fill:#94B275;fill-rule:nonzero}
    .fil2 {fill:#1B6C41;fill-rule:nonzero}
   ]]>
  </style>
 </defs>
 <g id="Layer_x0020_1">
  <metadata id="CorelCorpID_0Corel-Layer"/>
  <g id="_2189885137552">
   <path class="fil0" d="M1873.74 979.16c0,149.94 -121.59,271.53 -271.57,271.53 -149.95,0 -271.54,-121.59 -271.54,-271.53 0,-149.99 121.59,-271.58 271.54,-271.58 149.98,0 271.57,121.59 271.57,271.58z"/>
   <path class="fil1" d="M504.68 2458.05c0,65.19 -52.82,118.02 -117.98,118.02l0 0c-65.17,0 -118.01,-52.84 -118.01,-118.02l0 -1276.64c0,-65.15 52.84,-117.98 118.01,-117.98l0 0c65.16,0 117.98,52.84 117.98,117.98l0 1276.64z"/>
   <path class="fil2" d="M513 577.49l-228.88 0c-156.25,0 -284.11,127.84 -284.11,284.1l0 235.09c0,156.26 127.86,284.1 284.11,284.1l228.88 0 0 -803.3z"/>
   <polygon class="fil1" points="513,577.49 513,1380.79 1602.17,1915.28 1602.17,42.96 "/>
   <path class="fil2" d="M1557.77 42.96c0,624.13 0,1248.23 0,1872.33 0,57.3 88.8,57.3 88.8,0 0,-624.09 0,-1248.2 0,-1872.33 0,-57.25 -88.8,-57.25 -88.8,0l0 0z"/>
   <path class="fil0" d="M2056.31 997.89c117.25,0 234.53,0 351.77,0 24.15,0 24.15,-37.43 0,-37.43 -117.25,0 -234.53,0 -351.77,0 -24.15,0 -24.15,37.43 0,37.43l0 0z"/>
   <path class="fil0" d="M2065.75 695.91c117.26,-49.89 234.51,-99.8 351.77,-149.71 22.14,-9.42 3.08,-41.63 -18.88,-32.32 -117.25,49.91 -234.53,99.84 -351.77,149.75 -22.17,9.38 -3.05,41.63 18.88,32.28l0 0z"/>
   <path class="fil0" d="M2417.52 1382.16c-117.26,-49.91 -234.51,-99.82 -351.77,-149.71 -21.94,-9.34 -41.05,22.89 -18.88,32.32 117.25,49.91 234.53,99.78 351.77,149.7 21.96,9.31 41.02,-22.89 18.88,-32.3l0 0z"/>
  </g>
  <path class="fil0" d="M4103.07 1904.95c69.17,-118.86 127.05,-246.14 170.75,-377.82 111.75,0 223.36,0 335.03,0 -116.22,180.16 -293.7,314.94 -505.79,377.82zm-1001.4 -377.82c113.64,0 227.4,0 340.99,0 45.21,136.13 105.57,267.38 177.67,389.64 -217.56,-57.77 -399.83,-202.02 -518.67,-389.64zm484.17 -1339.72c-81.76,115.72 -140.47,240.46 -179.02,370.22 -104.34,0 -208.71,0 -313.02,0 115.1,-172.97 290.98,-304.3 492.04,-370.22zm1021.77 370.22c-99.37,0 -198.55,0 -298,0 -39.57,-133.26 -100.21,-261.24 -185.36,-379.55 201.99,63.42 370.92,202.12 483.36,379.55zm-244.37 530.53c130.34,0 260.7,0 391.05,0 -9.07,125 -41.63,242.36 -93.49,347.52 -119.79,0 -239.51,0 -359.3,0 31.67,-114.12 53.02,-230.8 61.74,-347.52zm-462.87 347.52c0,-115.85 0,-231.76 0,-347.52 123.88,0 247.75,0 371.65,0 -9.57,116.86 -32.18,233.69 -65.75,347.52 -101.99,0 -203.88,0 -305.9,0zm-455.85 -347.52c121.41,0 242.9,0 364.41,0 0,115.77 0,231.68 0,347.52 -99.54,0 -199.05,0 -298.7,0 -33.48,-113.84 -56.12,-230.66 -65.72,-347.52zm364.41 -439.05c0,115.79 0,231.74 0,347.51 -122.97,0 -246.03,0 -369.07,0 -2.6,-117.43 8.72,-234.22 35.7,-347.51 111.04,0 222.26,0 333.37,0zm467.66 347.51c-125.39,0 -250.79,0 -376.22,0 0,-115.77 0,-231.72 0,-347.51 113.58,0 227.02,0 340.59,0 27.02,113.3 38.24,230.08 35.63,347.51zm477.65 0c-129.05,0 -257.99,0 -386.96,0 2.19,-117.21 -8.24,-233.89 -33.5,-347.51 108.39,0 216.72,0 325.22,0 52.71,107.47 85.96,225.51 95.25,347.51zm-770.91 -849.38c109.17,124.82 185.08,263.84 232.27,410.39 -105.04,0 -210.16,0 -315.23,0 0,-139.04 0,-278.05 0,-417.07 28.07,0.77 55.73,3.13 82.96,6.67zm-174.4 -4.39c0,138.24 0,276.55 0,414.79 -102.72,0 -205.36,0 -308.05,0 46.52,-144.5 121.02,-281.59 227.84,-405.07 26.46,-4.34 53.22,-7.65 80.21,-9.71zm-768.43 506.26c114.03,0 228.07,0 342.22,0 -25.26,113.62 -35.67,230.3 -33.55,347.51 -132.06,0 -264.23,0 -396.26,0 3.43,-125.04 34.85,-242.25 87.6,-347.51zm-85.45 439.05c132.78,0 265.44,0 398.11,0 8.78,116.72 30.11,233.4 61.84,347.52 -121.56,0 -243.08,0 -364.63,0 -52.77,-107.53 -86.03,-225.48 -95.31,-347.52zm786.47 851.12c-81.84,-126.81 -150.58,-266.31 -201.87,-412.15 89.74,0 179.46,0 269.28,0 0,139.06 0,278.07 0,417.09 -22.72,-0.61 -45.07,-2.51 -67.4,-4.95zm158.84 2.76c0,-138.27 0,-276.62 0,-414.9 92.16,0 184.33,0 276.44,0 -50.38,143.4 -117.78,280.61 -197.92,405.76 -25.83,4.07 -51.88,7.16 -78.52,9.15zm996.35 -899.63c-4.34,-167.41 -45.26,-323.73 -114.73,-462.02 -0.44,-15.48 -7.39,-30.62 -20.66,-39.26 -148.01,-265.48 -405.43,-457.19 -716.46,-519.34 -13.58,-11.93 -29.1,-13.2 -42.65,-7.73 -48.19,-7.65 -97.31,-12.42 -147.58,-13.72 -392.88,-10.23 -725.72,217.7 -903.67,539.04 -16.47,8.86 -24.34,27.04 -23.57,44.88 -69.7,140.7 -110.58,297.05 -114.78,458.14 -15.17,578.46 486.14,1027.61 1042.02,1041.99 392.91,10.29 725.77,-217.76 903.72,-539.06 16.44,-8.82 24.31,-26.98 23.49,-44.84 69.81,-140.67 110.66,-297.05 114.85,-458.1z"/>
 </g>
</svg>
