<?xml version="1.0" encoding="UTF-8"?>
<!DOCTYPE svg PUBLIC "-//W3C//DTD SVG 1.1//EN" "http://www.w3.org/Graphics/SVG/1.1/DTD/svg11.dtd">
<!-- Creator: CorelDRAW 2020 (64-Bit) -->
<svg xmlns="http://www.w3.org/2000/svg" xml:space="preserve" width="45.4516mm" height="20mm" version="1.1" style="shape-rendering:geometricPrecision; text-rendering:geometricPrecision; image-rendering:optimizeQuality; fill-rule:evenodd; clip-rule:evenodd"
viewBox="0 0 2049.62 901.89"
 xmlns:xlink="http://www.w3.org/1999/xlink"
 xmlns:xodm="http://www.corel.com/coreldraw/odm/2003">
 <defs>
  <style type="text/css">
   <![CDATA[
    .fil1 {fill:#F9C18B;fill-rule:nonzero}
    .fil0 {fill:#EF7F1A;fill-rule:nonzero}
    .fil4 {fill:#94B275;fill-rule:nonzero}
    .fil2 {fill:#1B6C41;fill-rule:nonzero}
    .fil3 {fill:#D1D1D1;fill-rule:nonzero}
    .fil5 {fill:#F4F4F4;fill-rule:nonzero}
   ]]>
  </style>
 </defs>
 <g id="Layer_x0020_1">
  <metadata id="CorelCorpID_0Corel-Layer"/>
  <g id="_2189556021056">
   <path class="fil0" d="M1384.71 444.52c-39.02,-140.47 52.44,-227.79 160.64,-306.81l-49 -49.01 -142.54 142.56c-37.48,37.47 -58.13,87.31 -58.13,140.31 0,53.02 20.64,102.84 58.13,140.33 35.42,35.42 81.92,55.58 131.66,57.71 -46.35,-23.58 -82.8,-64.05 -100.76,-125.08z"/>
   <path class="fil0" d="M1549.36 141.7c55.09,-39.42 112.7,-77.45 161.01,-118.77 -18.27,-4.9 -37.23,-7.64 -56.66,-7.64 -58.16,0 -112.82,22.64 -153.93,63.77l-6.53 6.51 56.12 56.13z"/>
   <path class="fil1" d="M1772.43 363.99l-116.56 -116.56 -23.38 23.38c-7.06,7.06 -16.34,10.58 -25.6,10.58 -9.28,0 -18.57,-3.53 -25.63,-10.58 -14.12,-14.12 -2.82,-30.58 11.3,-44.71l23.4 -23.38 -75.16 -70.37c-108.2,79.02 -199.66,166.34 -160.64,306.81 17.96,61.04 54.41,101.5 100.76,125.08 2.9,0.12 5.76,0.42 8.65,0.42 53.02,0 102.86,-20.66 140.33,-58.13l142.54 -142.54z"/>
   <path class="fil1" d="M1616.05 194.9l42.85 -42.83c12.26,-12.27 30.9,-14.15 45.28,-5.9l83.45 -82.95c-24.15,-21.49 -52.48,-36.75 -83.16,-44.99 -45.78,39.16 -100.35,75.19 -152.55,112.54l64.13 64.13z"/>
   <path class="fil1" d="M1796.3 68.58l-93.19 87.12c8.28,14.5 6.39,33.25 -5.98,45.61l-34.27 39.85 122.13 122.13 6.24 -6.22c39.26,-39.27 60.91,-91.5 60.91,-147.04 0,-53.03 -19.91,-102.86 -55.85,-141.47z"/>
   <path class="fil0" d="M1675.65 155.16l-89.25 89.22c-7.72,7.74 -7.72,20.32 0,28.05 7.74,7.74 20.33,7.74 28.06,0l89.22 -89.24c7.74,-7.72 7.74,-20.31 0,-28.03 -3.86,-3.86 -8.94,-5.79 -14.03,-5.79 -5.07,0 -10.14,1.93 -14,5.79z"/>
   <path class="fil2" d="M1783.85 345.41l-5.74 5.75 -112.58 -112.58 39.81 -39.78c11.37,-11.4 13.13,-28.68 5.49,-42.03l77.7 -77.23c33.1,35.58 51.45,81.51 51.45,130.38 0,51.18 -19.93,99.31 -56.13,135.5zm-91.43 -159.52l-75.28 75.28c-6.52,6.53 -17.14,6.52 -23.65,0 -6.53,-6.53 -6.53,-17.13 0,-23.65l75.29 -75.3c3.25,-3.27 7.54,-4.9 11.83,-4.9 4.27,0 8.56,1.63 11.81,4.9 6.53,6.52 6.53,17.14 0,23.67zm-44.09 -167.63c17.1,0 33.79,2.41 49.87,6.73 28.49,7.65 54.81,21.83 77.26,41.81l-77.52 77.05c-13.37,-7.67 -30.68,-5.93 -42.08,5.48l-39.8 39.8 -59.6 -59.6 -49.39 -49.37 5.73 -5.75c36.21,-36.19 84.34,-56.14 135.52,-56.14zm-164.66 539.19c-48.03,-2.05 -92.94,-21.51 -127.15,-55.72 -36.19,-36.2 -56.12,-84.32 -56.12,-135.5 0,-51.2 19.94,-99.33 56.12,-135.52l137.66 -137.66 47.31 47.32 61.68 61.66 -22.59 22.58c-13.65,13.64 -13.65,35.84 0,49.47 6.8,6.82 15.77,10.22 24.73,10.22 8.96,0 17.92,-3.4 24.74,-10.22l22.58 -22.58 112.59 112.57 -137.68 137.66c-36.2,36.21 -84.32,56.13 -135.5,56.13 -2.81,0 -5.57,-0.28 -8.37,-0.41zm521.62 -291.58c59.12,-59.12 59.12,-155.31 0,-214.41 -59.1,-59.11 -155.29,-59.14 -214.39,-0.02l-2.48 2.48c-38.58,-34.72 -87.8,-53.92 -140.09,-53.92 -56.07,0 -108.76,21.83 -148.42,61.48l-156.3 156.31c-39.65,39.64 -61.48,92.34 -61.48,148.42 0,56.06 21.83,108.77 61.48,148.41 39.64,39.65 92.35,61.49 148.42,61.49 56.05,0 108.77,-21.83 148.42,-61.49l156.3 -156.31c39.65,-39.64 61.48,-92.35 61.48,-148.41 0,-53.72 -20.23,-104.22 -56.77,-143.23l2.33 -2.32c52,-51.98 136.59,-51.98 188.59,0 51.99,52 51.99,136.6 0,188.59l-417.29 417.29c-52.92,52.92 -52.92,139.03 0,191.95 26.46,26.47 61.22,39.7 95.99,39.7 34.75,0 69.52,-13.24 95.97,-39.7l227.27 -227.26c3.56,-3.56 3.56,-9.33 0,-12.89 -3.58,-3.58 -9.34,-3.58 -12.9,0l-227.27 227.24c-45.82,45.83 -120.35,45.82 -166.16,0 -22.18,-22.18 -34.4,-51.7 -34.4,-83.06 0,-31.4 12.22,-60.9 34.4,-83.09l417.29 -417.27z"/>
  </g>
  <g id="_2189556029312">
   <path class="fil2" d="M1101.12 832.36c0,16.3 -13.19,29.51 -29.49,29.51l-1042.13 0c-16.27,0 -29.5,-13.21 -29.5,-29.51l0 -802.87c0,-16.28 13.22,-29.49 29.5,-29.49l1042.13 0c16.3,0 29.49,13.21 29.49,29.49l0 802.87z"/>
   <path class="fil3" d="M1046.69 771.32c0,13.8 -11.92,25 -26.58,25l-939.1 0c-14.66,0 -26.58,-11.2 -26.58,-25l0 -680.79c0,-13.8 11.93,-24.99 26.58,-24.99l939.1 0c14.66,0 26.58,11.19 26.58,24.99l0 680.79z"/>
   <path class="fil4" d="M1046.69 771.13c0,13.92 -11.92,25.19 -26.58,25.19l-939.1 0c-14.66,0 -26.58,-11.27 -26.58,-25.19l0 -685.85c0,-13.93 11.93,-25.19 26.58,-25.19l939.1 0c14.66,0 26.58,11.26 26.58,25.19l0 685.85z"/>
   <path class="fil5" d="M1043.4 750.76c0,13.06 -11.79,23.68 -26.4,23.68l-932.87 0c-14.61,0 -26.42,-10.62 -26.42,-23.68l0 -645.11c0,-13.07 11.81,-23.7 26.42,-23.7l932.87 0c14.61,0 26.4,10.63 26.4,23.7l0 645.11z"/>
   <path class="fil4" d="M1020.11 65.55l-939.1 0c-14.66,0 -26.58,11.19 -26.58,24.99l0 41.68c0,-12.97 11.93,-23.53 26.58,-23.53l939.1 0c14.66,0 26.58,10.55 26.58,23.53l0 -41.68c0,-13.8 -11.92,-24.99 -26.58,-24.99z"/>
   <polygon class="fil2" points="155.95,479.46 155.95,427.15 458.29,299.52 458.29,355.23 218.54,453.62 458.29,552.95 458.29,608.68 "/>
   <polygon class="fil2" points="461.6,686.86 593.93,214.81 638.77,214.81 506.74,686.86 "/>
   <polygon class="fil2" points="944.08,479.46 641.74,608.68 641.74,552.95 881.17,453.62 641.74,355.23 641.74,299.52 944.08,427.15 "/>
   <path class="fil4" d="M1056.87 819.26c0,4.55 -3.65,8.2 -8.18,8.2l-989.7 0c-4.52,0 -8.18,-3.65 -8.18,-8.2 0,-4.51 3.66,-8.17 8.18,-8.17l989.7 0c4.53,0 8.18,3.66 8.18,8.17z"/>
  </g>
 </g>
</svg>
