<?xml version="1.0" encoding="UTF-8"?>
<!DOCTYPE svg PUBLIC "-//W3C//DTD SVG 1.1//EN" "http://www.w3.org/Graphics/SVG/1.1/DTD/svg11.dtd">
<!-- Creator: CorelDRAW 2020 (64-Bit) -->
<svg xmlns="http://www.w3.org/2000/svg" xml:space="preserve" width="23.7186mm" height="20mm" version="1.1" style="shape-rendering:geometricPrecision; text-rendering:geometricPrecision; image-rendering:optimizeQuality; fill-rule:evenodd; clip-rule:evenodd"
viewBox="0 0 667.96 563.24"
 xmlns:xlink="http://www.w3.org/1999/xlink"
 xmlns:xodm="http://www.corel.com/coreldraw/odm/2003">
 <defs>
  <style type="text/css">
   <![CDATA[
    .fil6 {fill:#EBECEC}
    .fil0 {fill:#F9C18B}
    .fil3 {fill:#EF7F1A}
    .fil7 {fill:#F8F8FA}
    .fil2 {fill:#94B275}
    .fil4 {fill:#1B6C41}
    .fil5 {fill:#EF7F1A;fill-rule:nonzero}
    .fil1 {fill:#1B6C41;fill-rule:nonzero}
   ]]>
  </style>
 </defs>
 <g id="Layer_x0020_1">
  <metadata id="CorelCorpID_0Corel-Layer"/>
  <g id="_2189363499408">
   <path class="fil0" d="M1.92 14.2l419.99 0c0,175.62 0,371.51 0,547.12l-419.99 0 0 -547.12z"/>
   <path class="fil1" d="M3.82 559.41l416.17 0 0 -543.3 -416.17 0 0 543.3zm418.08 3.83l-419.99 0c-1.06,0 -1.92,-0.85 -1.92,-1.91l0 -547.12c0,-1.06 0.86,-1.9 1.92,-1.9l419.99 0c1.06,0 1.92,0.84 1.92,1.9l0 547.12c0,1.06 -0.85,1.91 -1.92,1.91z"/>
   <polygon class="fil0" points="1.92,14.2 421.79,14.2 421.79,561.33 89.23,561.33 1.92,475.89 "/>
   <path class="fil1" d="M90 559.41l329.89 0 0 -543.3 -416.07 0 0 458.97 86.18 84.33zm331.79 3.83l-332.57 0c-0.49,0 -0.97,-0.2 -1.33,-0.56l-87.32 -85.44c-0.37,-0.35 -0.57,-0.85 -0.57,-1.35l0 -461.68c0,-1.06 0.86,-1.9 1.92,-1.9l419.88 0c1.06,0 1.91,0.84 1.91,1.9l0 547.12c0,1.06 -0.85,1.91 -1.91,1.91z"/>
   <polygon class="fil2" points="87.79,561.33 1.92,475.45 87.79,475.45 "/>
   <path class="fil1" d="M6.52 477.36l79.36 79.36 0 -79.36 -79.36 0zm81.27 85.88c-0.49,0 -0.98,-0.2 -1.35,-0.57l-85.88 -85.88c-0.54,-0.54 -0.71,-1.37 -0.41,-2.08 0.29,-0.71 0.99,-1.18 1.76,-1.18l85.87 0c1.05,0 1.92,0.85 1.92,1.9l0 85.88c0,0.77 -0.48,1.47 -1.19,1.76 -0.24,0.09 -0.47,0.15 -0.73,0.15z"/>
   <path class="fil3" d="M370.44 291.54l-157.87 -157.87 -157.87 157.87 157.87 157.87 157.87 -157.87zm-156.43 -162.19l160.75 160.75 1.44 1.44 -1.44 1.44 -160.75 160.74 -1.44 1.44 -1.44 -1.44 -160.75 -160.74 -1.44 -1.44 1.44 -1.44 160.75 -160.75 1.44 -1.44 1.44 1.44 0 0z"/>
   <path class="fil1" d="M57.4 291.54l155.17 155.17 155.17 -155.17 -155.17 -155.18 -155.17 155.18zm155.17 159.77c-0.48,0 -0.97,-0.19 -1.35,-0.56l-157.87 -157.87c-0.75,-0.75 -0.75,-1.96 0,-2.71l157.87 -157.86c0.74,-0.75 1.95,-0.75 2.7,0l157.87 157.86c0.75,0.75 0.75,1.96 0,2.71l-157.87 157.87c-0.37,0.37 -0.86,0.56 -1.35,0.56zm-160.93 -159.77l0.09 0.1 160.83 160.83 0.09 -0.09 160.83 -160.83 -0.08 -0.1 -160.84 -160.83 -0.09 0.09 -160.83 160.84zm160.93 165.53c-0.5,0 -0.99,-0.21 -1.35,-0.56l-163.63 -163.63c-0.74,-0.75 -0.74,-1.95 0,-2.7l163.63 -163.62c0.71,-0.71 1.98,-0.71 2.7,0l163.63 163.62c0.74,0.75 0.75,1.95 0,2.7l-1.44 1.44 -162.19 162.19c-0.36,0.35 -0.84,0.56 -1.35,0.56z"/>
   <path class="fil4" d="M374.76 285.68c4.02,0 7.27,3.27 7.27,7.28 0,4.02 -3.26,7.28 -7.27,7.28 -4.03,0 -7.28,-3.26 -7.28,-7.28 0,-4.02 3.26,-7.28 7.28,-7.28z"/>
   <path class="fil5" d="M374.76 287.6c-2.97,0 -5.38,2.4 -5.38,5.36 0,2.97 2.41,5.37 5.38,5.37 2.96,0 5.36,-2.41 5.36,-5.37 0,-2.97 -2.4,-5.36 -5.36,-5.36zm0 14.55c-5.07,0 -9.19,-4.12 -9.19,-9.19 0,-5.06 4.12,-9.19 9.19,-9.19 5.07,0 9.19,4.13 9.19,9.19 0,5.07 -4.12,9.19 -9.19,9.19z"/>
   <path class="fil4" d="M48.94 284.25c4.03,0 7.29,3.26 7.29,7.28 0,4.02 -3.26,7.27 -7.29,7.27 -4.01,0 -7.27,-3.25 -7.27,-7.27 0,-4.03 3.26,-7.28 7.27,-7.28z"/>
   <path class="fil5" d="M48.94 286.16c-2.96,0 -5.36,2.41 -5.36,5.38 0,2.96 2.4,5.36 5.36,5.36 2.97,0 5.37,-2.4 5.37,-5.36 0,-2.97 -2.4,-5.38 -5.37,-5.38zm0 14.56c-5.05,0 -9.19,-4.12 -9.19,-9.19 0,-5.07 4.14,-9.19 9.19,-9.19 5.07,0 9.19,4.12 9.19,9.19 0,5.07 -4.12,9.19 -9.19,9.19z"/>
   <path class="fil1" d="M102.86 448.99l219.43 0 0 -314.93 -219.43 0 0 314.93zm221.35 3.82l-223.26 0c-1.05,0 -1.9,-0.85 -1.9,-1.91l0 -318.75c0,-1.06 0.84,-1.91 1.9,-1.91l223.26 0c1.05,0 1.9,0.85 1.9,1.91l0 318.75c0,1.06 -0.86,1.91 -1.9,1.91zm-225.43 0.26l227.6 -0.13 0 -322.95 -227.6 0.13 0 322.95zm229.51 3.82l-231.4 0c-1.06,0 -1.92,-0.86 -1.92,-1.91l0 -326.89c0,-1.06 0.86,-1.92 1.92,-1.92l231.4 0c1.06,0 1.91,0.86 1.91,1.92l0 326.89c0,1.05 -0.85,1.91 -1.91,1.91zm-4.08 -324.73l-223.26 0 0 318.75 223.26 0 0 -318.75zm-225.3 -4.07l229.37 0 0 326.89 -231.4 0 0 -326.89 2.03 0 0 0z"/>
   <path class="fil3" d="M124.45 366.38l161.37 -159.95 -11.19 -11.25 -159.7 158.29c2.86,4.53 6.05,8.84 9.52,12.91zm203.11 -86.94l-128.11 126.97c4.31,0.48 8.68,0.74 13.11,0.74 3.05,0 6.06,-0.12 9.04,-0.35l106.14 -105.21c0.29,-3.31 0.44,-6.67 0.44,-10.05 0,-4.09 -0.23,-8.12 -0.63,-12.1l0 0zm-9.92 -36.19l-154.3 152.93c5.24,2.46 10.66,4.54 16.28,6.2l144.08 -142.8c-1.61,-5.63 -3.64,-11.09 -6.06,-16.33l0 0zm-12.06 -20.39l-6.85 -6.87 -162.91 161.46 3.7 3.71c2.77,2.26 5.65,4.41 8.63,6.41l161.01 -159.58c-1.15,-1.74 -2.36,-3.45 -3.59,-5.13l0 0zm-61.11 -42.47l-143.33 142.07c1.57,5.67 3.56,11.17 5.93,16.46l153.8 -152.45c-5.27,-2.42 -10.74,-4.46 -16.4,-6.08l0 0zm-18.79 -3.72l-128.1 126.97c-0.42,-3.98 -0.63,-8.02 -0.63,-12.09 0,-3.39 0.14,-6.75 0.43,-10.07l106.14 -105.2c2.98,-0.23 5.99,-0.35 9.04,-0.35 4.44,0 8.81,0.26 13.11,0.75l0 0z"/>
   <path class="fil1" d="M99.24 282.33c-0.25,3.02 -0.37,6.12 -0.37,9.21 0,2.62 0.09,5.25 0.27,7.87l122.31 -121.24c-5.69,-0.44 -11.42,-0.46 -17.07,-0.05l-105.13 104.21zm-1.65 23.21c-0.22,0 -0.43,-0.05 -0.64,-0.11 -0.7,-0.25 -1.19,-0.87 -1.26,-1.6 -0.43,-4.05 -0.64,-8.2 -0.64,-12.29 0,-3.44 0.14,-6.87 0.45,-10.23 0.03,-0.45 0.23,-0.88 0.54,-1.2l106.15 -105.2c0.31,-0.32 0.74,-0.51 1.19,-0.54 7.44,-0.57 15.06,-0.46 22.51,0.4 0.73,0.08 1.36,0.57 1.59,1.26 0.24,0.69 0.06,1.46 -0.46,1.97l-128.1 126.98c-0.37,0.36 -0.86,0.55 -1.35,0.55zm5.7 17.48c1.22,4.26 2.71,8.47 4.43,12.57l149.84 -148.51c-4.08,-1.75 -8.27,-3.29 -12.54,-4.55l-141.73 140.49zm3.8 17.79c-0.12,0 -0.24,-0.01 -0.35,-0.03 -0.61,-0.11 -1.13,-0.52 -1.39,-1.08 -2.42,-5.4 -4.47,-11.03 -6.04,-16.73 -0.19,-0.66 0,-1.37 0.48,-1.86l143.35 -142.07c0.48,-0.49 1.19,-0.69 1.86,-0.48 5.71,1.63 11.31,3.71 16.67,6.18 0.57,0.27 0.97,0.79 1.08,1.4 0.12,0.63 -0.09,1.25 -0.52,1.7l-153.8 152.43c-0.36,0.37 -0.85,0.55 -1.35,0.55zm10.3 12.92c2.21,3.39 4.64,6.68 7.21,9.83l158.54 -157.14 -8.5 -8.54 -157.24 155.85zm7.08 14.56c-0.03,0 -0.05,0 -0.08,0 -0.54,-0.03 -1.03,-0.27 -1.37,-0.67 -3.52,-4.15 -6.78,-8.56 -9.68,-13.12 -0.48,-0.77 -0.37,-1.75 0.26,-2.39l159.71 -158.28c0.75,-0.74 1.96,-0.73 2.7,0.01l11.18 11.26c0.36,0.35 0.56,0.84 0.56,1.35 -0.01,0.5 -0.2,0.99 -0.56,1.35l-161.38 159.94c-0.36,0.35 -0.84,0.56 -1.34,0.56zm14.09 9.17l2.34 2.35c2.23,1.8 4.63,3.6 7.06,5.28l158.77 -157.35c-0.86,-1.27 -1.75,-2.53 -2.66,-3.75l-5.31 -5.33 -160.19 158.8zm9.62 12.02c-0.35,0 -0.73,-0.12 -1.06,-0.33 -2.98,-2 -5.93,-4.2 -8.78,-6.51l-3.84 -3.85c-0.35,-0.36 -0.55,-0.85 -0.55,-1.35 0,-0.52 0.2,-0.99 0.56,-1.35l162.91 -161.47c0.74,-0.74 1.94,-0.74 2.69,0.01l6.85 6.87c1.44,1.92 2.66,3.66 3.82,5.42 0.51,0.75 0.41,1.76 -0.25,2.41l-160.99 159.58c-0.37,0.35 -0.86,0.56 -1.36,0.56zm18.5 6.11c4.06,1.8 8.23,3.35 12.43,4.64l142.47 -141.2c-1.26,-4.22 -2.79,-8.4 -4.55,-12.49l-150.36 149.04zm12.97 8.71c-0.18,0 -0.35,-0.03 -0.54,-0.08 -5.63,-1.66 -11.19,-3.79 -16.55,-6.31 -0.57,-0.27 -0.96,-0.79 -1.06,-1.4 -0.12,-0.63 0.1,-1.24 0.52,-1.7l154.29 -152.93c0.45,-0.43 1.08,-0.63 1.7,-0.52 0.6,0.11 1.12,0.52 1.39,1.08 2.46,5.39 4.54,10.98 6.15,16.6 0.19,0.67 0.01,1.39 -0.48,1.88l-144.07 142.8c-0.37,0.36 -0.85,0.56 -1.35,0.56zm24.06 0.59c5.63,0.44 11.35,0.47 17.07,0.06l105.14 -104.21c0.25,-3.04 0.37,-6.13 0.37,-9.2 0,-2.6 -0.1,-5.23 -0.27,-7.88l-122.31 121.23zm8.87 4.16c-4.46,0 -8.95,-0.25 -13.32,-0.75 -0.73,-0.07 -1.35,-0.57 -1.59,-1.26 -0.24,-0.7 -0.05,-1.47 0.46,-1.98l128.1 -126.97c0.54,-0.52 1.31,-0.69 1.99,-0.44 0.7,0.25 1.18,0.87 1.25,1.6 0.43,4.1 0.64,8.23 0.64,12.29 0,3.42 -0.14,6.86 -0.44,10.22 -0.03,0.46 -0.24,0.87 -0.55,1.2l-106.15 105.2c-0.32,0.32 -0.75,0.51 -1.21,0.54 -3.05,0.24 -6.14,0.35 -9.18,0.35z"/>
   <path class="fil3" d="M283.07 221.04c-18.03,-18.05 -42.97,-29.21 -70.5,-29.21 -27.53,0 -52.46,11.16 -70.5,29.21 -18.04,18.04 -29.21,42.96 -29.21,70.5 0,27.53 11.17,52.45 29.21,70.49 18.03,18.04 42.96,29.22 70.5,29.22 27.53,0 52.47,-11.17 70.5,-29.22 18.03,-18.04 29.19,-42.96 29.19,-70.49 0,-27.53 -11.16,-52.46 -29.19,-70.5zm-70.5 -45.13c31.93,0 60.83,12.95 81.75,33.86 20.92,20.93 33.87,49.83 33.87,81.76 0,31.92 -12.95,60.83 -33.87,81.74 -20.92,20.92 -49.82,33.87 -81.75,33.87 -31.92,0 -60.83,-12.95 -81.74,-33.87 -20.93,-20.91 -33.87,-49.82 -33.87,-81.74 0,-31.93 12.94,-60.84 33.87,-81.76 20.91,-20.91 49.82,-33.86 81.74,-33.86l0 0z"/>
   <path class="fil1" d="M212.57 193.75c-26.12,0 -50.67,10.17 -69.15,28.64 -18.47,18.47 -28.64,43.03 -28.64,69.15 0,26.11 10.16,50.67 28.64,69.14 18.48,18.48 43.03,28.65 69.15,28.65 26.12,0 50.68,-10.17 69.15,-28.65 18.47,-18.47 28.64,-43.03 28.64,-69.14 0,-26.11 -10.17,-50.68 -28.64,-69.15 -18.47,-18.47 -43.02,-28.64 -69.15,-28.64zm0 199.39c-27.14,0 -52.65,-10.57 -71.84,-29.76 -19.2,-19.19 -29.77,-44.71 -29.77,-71.84 0,-27.13 10.57,-52.65 29.77,-71.85 19.19,-19.18 44.7,-29.75 71.84,-29.75 27.14,0 52.65,10.57 71.85,29.75 19.18,19.2 29.75,44.72 29.75,71.85 0,27.13 -10.57,52.65 -29.75,71.84 -19.2,19.19 -44.71,29.76 -71.85,29.76zm0 -215.31c-30.37,0 -58.92,11.82 -80.39,33.3 -21.48,21.48 -33.31,50.04 -33.31,80.41 0,30.37 11.83,58.92 33.31,80.39 21.47,21.48 50.02,33.3 80.39,33.3 30.37,0 58.93,-11.83 80.4,-33.3 21.48,-21.47 33.31,-50.03 33.31,-80.39 0,-30.37 -11.83,-58.93 -33.31,-80.41 -21.47,-21.48 -50.03,-33.3 -80.4,-33.3zm0 231.22c-31.39,0 -60.9,-12.22 -83.1,-34.42 -22.2,-22.2 -34.42,-51.71 -34.42,-83.1 0,-31.39 12.22,-60.91 34.42,-83.11 22.2,-22.2 51.71,-34.41 83.1,-34.41 31.39,0 60.91,12.22 83.1,34.41 22.2,22.2 34.42,51.72 34.42,83.11 0,31.38 -12.22,60.9 -34.42,83.1 -22.19,22.2 -51.71,34.42 -83.1,34.42z"/>
   <path class="fil4" d="M63.31 32.58c10.37,0 18.8,8.41 18.8,18.8 0,10.38 -8.43,18.79 -18.8,18.79 -10.38,0 -18.79,-8.41 -18.79,-18.79 0,-10.38 8.41,-18.8 18.79,-18.8z"/>
   <path class="fil1" d="M63.31 34.49c-9.31,0 -16.88,7.57 -16.88,16.89 0,9.32 7.57,16.89 16.88,16.89 9.31,0 16.88,-7.57 16.88,-16.89 0,-9.31 -7.58,-16.89 -16.88,-16.89zm0 37.59c-11.42,0 -20.7,-9.28 -20.7,-20.7 0,-11.43 9.29,-20.7 20.7,-20.7 11.42,0 20.7,9.27 20.7,20.7 0,11.42 -9.28,20.7 -20.7,20.7z"/>
   <path class="fil6" d="M80.7 44.22c0.9,2.2 1.41,4.62 1.41,7.15 0,10.38 -8.43,18.79 -18.8,18.79 -6.22,0 -11.73,-3.02 -15.15,-7.66 -0.92,-2.21 -1.41,-4.62 -1.41,-7.15 0,-10.38 8.41,-18.79 18.78,-18.79 6.22,0 11.72,3.01 15.16,7.66z"/>
   <path class="fil1" d="M65.54 38.46c-9.31,0 -16.88,7.58 -16.88,16.89 0,2.22 0.42,4.38 1.27,6.42 2.94,3.91 8.03,6.49 13.38,6.49 9.31,0 16.88,-7.57 16.88,-16.89 0,-2.22 -0.42,-4.39 -1.26,-6.43 -2.95,-3.91 -8.05,-6.48 -13.39,-6.48zm-2.23 33.61c-6.56,0 -12.8,-3.15 -16.69,-8.43 -1.24,-2.91 -1.78,-5.57 -1.78,-8.29 0,-11.42 9.29,-20.71 20.7,-20.71 6.55,0 12.79,3.15 16.69,8.44 1.26,2.93 1.78,5.58 1.78,8.29 0,11.42 -9.28,20.7 -20.7,20.7z"/>
   <path class="fil4" d="M137.58 32.58c10.37,0 18.8,8.41 18.8,18.8 0,10.38 -8.42,18.79 -18.8,18.79 -10.38,0 -18.79,-8.41 -18.79,-18.79 0,-10.38 8.41,-18.8 18.79,-18.8z"/>
   <path class="fil1" d="M137.58 34.49c-9.3,0 -16.88,7.57 -16.88,16.89 0,9.32 7.58,16.89 16.88,16.89 9.32,0 16.89,-7.57 16.89,-16.89 0,-9.31 -7.58,-16.89 -16.89,-16.89zm0 37.59c-11.41,0 -20.7,-9.28 -20.7,-20.7 0,-11.43 9.29,-20.7 20.7,-20.7 11.42,0 20.71,9.27 20.71,20.7 0,11.42 -9.29,20.7 -20.71,20.7z"/>
   <path class="fil6" d="M154.97 44.22c0.92,2.2 1.41,4.62 1.41,7.15 0,10.38 -8.42,18.79 -18.8,18.79 -6.21,0 -11.72,-3.02 -15.15,-7.66 -0.91,-2.21 -1.41,-4.62 -1.41,-7.15 0,-10.38 8.43,-18.79 18.8,-18.79 6.22,0 11.72,3.01 15.15,7.66z"/>
   <path class="fil1" d="M139.82 38.46c-9.32,0 -16.89,7.58 -16.89,16.89 0,2.22 0.43,4.38 1.26,6.42 2.94,3.91 8.03,6.49 13.38,6.49 9.32,0 16.89,-7.57 16.89,-16.89 0,-2.24 -0.43,-4.4 -1.27,-6.42 -2.99,-3.98 -7.96,-6.49 -13.38,-6.49zm-2.24 33.61c-6.56,0 -12.79,-3.15 -16.68,-8.43 -1.26,-2.91 -1.79,-5.57 -1.79,-8.29 0,-11.42 9.28,-20.71 20.71,-20.71 6.55,0 12.79,3.15 16.68,8.44 1.26,2.91 1.79,5.56 1.79,8.29 0,11.42 -9.29,20.7 -20.71,20.7z"/>
   <path class="fil4" d="M211.85 32.58c10.38,0 18.8,8.41 18.8,18.8 0,10.38 -8.41,18.79 -18.8,18.79 -10.37,0 -18.8,-8.41 -18.8,-18.79 0,-10.38 8.43,-18.8 18.8,-18.8z"/>
   <path class="fil1" d="M211.85 34.49c-9.31,0 -16.89,7.57 -16.89,16.89 0,9.32 7.58,16.89 16.89,16.89 9.32,0 16.88,-7.57 16.88,-16.89 0,-9.31 -7.57,-16.89 -16.88,-16.89zm0 37.59c-11.42,0 -20.7,-9.28 -20.7,-20.7 0,-11.43 9.28,-20.7 20.7,-20.7 11.42,0 20.71,9.27 20.71,20.7 0,11.42 -9.29,20.7 -20.71,20.7z"/>
   <path class="fil6" d="M229.23 44.22c0.91,2.2 1.41,4.62 1.41,7.15 0,10.38 -8.41,18.79 -18.8,18.79 -6.21,0 -11.73,-3.02 -15.15,-7.66 -0.9,-2.21 -1.42,-4.62 -1.42,-7.15 0,-10.38 8.42,-18.79 18.81,-18.79 6.2,0 11.72,3.01 15.14,7.66z"/>
   <path class="fil1" d="M214.1 38.46c-9.32,0 -16.89,7.58 -16.89,16.89 0,2.2 0.42,4.37 1.26,6.42 2.95,3.91 8.04,6.49 13.39,6.49 9.32,0 16.88,-7.57 16.88,-16.89 0,-2.24 -0.41,-4.4 -1.26,-6.42 -2.95,-3.92 -8.03,-6.49 -13.37,-6.49zm-2.25 33.61c-6.55,0 -12.79,-3.15 -16.68,-8.43 -1.26,-2.92 -1.79,-5.58 -1.79,-8.29 0,-11.42 9.29,-20.71 20.72,-20.71 6.55,0 12.79,3.15 16.68,8.44 1.25,2.91 1.78,5.56 1.78,8.29 0,11.42 -9.29,20.7 -20.71,20.7z"/>
   <path class="fil4" d="M286.13 32.58c10.36,0 18.79,8.41 18.79,18.8 0,10.38 -8.43,18.79 -18.79,18.79 -10.39,0 -18.8,-8.41 -18.8,-18.79 0,-10.38 8.41,-18.8 18.8,-18.8z"/>
   <path class="fil1" d="M286.13 34.49c-9.32,0 -16.89,7.57 -16.89,16.89 0,9.32 7.57,16.89 16.89,16.89 9.3,0 16.88,-7.57 16.88,-16.89 0,-9.31 -7.58,-16.89 -16.88,-16.89zm0 37.59c-11.43,0 -20.71,-9.28 -20.71,-20.7 0,-11.43 9.28,-20.7 20.71,-20.7 11.42,0 20.7,9.27 20.7,20.7 0,11.42 -9.28,20.7 -20.7,20.7z"/>
   <path class="fil6" d="M303.51 44.22c0.91,2.2 1.41,4.62 1.41,7.15 0,10.38 -8.43,18.79 -18.79,18.79 -6.22,0 -11.73,-3.02 -15.15,-7.66 -0.92,-2.21 -1.41,-4.62 -1.41,-7.15 0,-10.38 8.41,-18.79 18.79,-18.79 6.21,0 11.71,3.01 15.15,7.66z"/>
   <path class="fil1" d="M288.36 38.46c-9.32,0 -16.89,7.58 -16.89,16.89 0,2.22 0.43,4.38 1.27,6.42 2.94,3.91 8.04,6.49 13.39,6.49 9.3,0 16.88,-7.57 16.88,-16.89 0,-2.24 -0.43,-4.4 -1.27,-6.42 -2.94,-3.92 -8.03,-6.49 -13.37,-6.49zm-2.24 33.61c-6.56,0 -12.79,-3.15 -16.68,-8.43 -1.25,-2.91 -1.79,-5.57 -1.79,-8.29 0,-11.42 9.29,-20.71 20.71,-20.71 6.55,0 12.78,3.15 16.67,8.44 1.26,2.91 1.79,5.56 1.79,8.29 0,11.42 -9.28,20.7 -20.7,20.7z"/>
   <path class="fil4" d="M360.39 32.58c10.37,0 18.79,8.41 18.79,18.8 0,10.38 -8.41,18.79 -18.79,18.79 -10.38,0 -18.79,-8.41 -18.79,-18.79 0,-10.38 8.41,-18.8 18.79,-18.8z"/>
   <path class="fil1" d="M360.39 34.49c-9.32,0 -16.89,7.57 -16.89,16.89 0,9.32 7.58,16.89 16.89,16.89 9.31,0 16.88,-7.57 16.88,-16.89 0,-9.31 -7.58,-16.89 -16.88,-16.89zm0 37.59c-11.42,0 -20.71,-9.28 -20.71,-20.7 0,-11.43 9.29,-20.7 20.71,-20.7 11.42,0 20.7,9.27 20.7,20.7 0,11.42 -9.28,20.7 -20.7,20.7z"/>
   <path class="fil6" d="M377.77 44.22c0.92,2.2 1.41,4.62 1.41,7.15 0,10.38 -8.41,18.79 -18.79,18.79 -6.22,0 -11.72,-3.02 -15.15,-7.66 -0.9,-2.21 -1.41,-4.62 -1.41,-7.15 0,-10.38 8.42,-18.79 18.8,-18.79 6.21,0 11.72,3.01 15.14,7.66z"/>
   <path class="fil1" d="M362.63 38.46c-9.3,0 -16.88,7.58 -16.88,16.89 0,2.22 0.43,4.38 1.26,6.42 2.95,3.91 8.03,6.49 13.38,6.49 9.31,0 16.88,-7.57 16.88,-16.89 0,-2.24 -0.42,-4.4 -1.27,-6.42 -2.94,-3.92 -8.03,-6.49 -13.38,-6.49zm-2.24 33.61c-6.56,0 -12.79,-3.15 -16.68,-8.43 -1.26,-2.91 -1.78,-5.57 -1.78,-8.29 0,-11.42 9.28,-20.71 20.7,-20.71 6.56,0 12.79,3.15 16.68,8.44 1.26,2.91 1.78,5.56 1.78,8.29 0,11.42 -9.28,20.7 -20.7,20.7z"/>
   <path class="fil2" d="M63.31 1.91l0 0c4.93,0 8.97,4.04 8.97,8.99l0 43.38c0,4.94 -4.03,8.98 -8.97,8.98l0 0c-4.94,0 -8.98,-4.04 -8.98,-8.98l0 -43.38c0,-4.94 4.04,-8.99 8.98,-8.99z"/>
   <path class="fil1" d="M63.31 3.82c-3.9,0 -7.07,3.17 -7.07,7.07l0 43.38c0,3.9 3.17,7.07 7.07,7.07 3.9,0 7.07,-3.17 7.07,-7.07l0 -43.38c0,-3.9 -3.17,-7.07 -7.07,-7.07zm0 61.34c-6.01,0 -10.89,-4.88 -10.89,-10.89l0 -43.38c0,-6 4.88,-10.89 10.89,-10.89 6,0 10.88,4.89 10.88,10.89l0 43.38c0,6.01 -4.88,10.89 -10.88,10.89z"/>
   <path class="fil2" d="M137.58 1.91l0 0c4.94,0 8.98,4.04 8.98,8.99l0 43.38c0,4.94 -4.04,8.98 -8.98,8.98l0 0c-4.94,0 -8.97,-4.04 -8.97,-8.98l0 -43.38c0,-4.94 4.03,-8.99 8.97,-8.99z"/>
   <path class="fil1" d="M137.58 3.82c-3.89,0 -7.07,3.17 -7.07,7.07l0 43.38c0,3.9 3.18,7.07 7.07,7.07 3.89,0 7.06,-3.17 7.06,-7.07l0 -43.38c0,-3.9 -3.17,-7.07 -7.06,-7.07zm0 61.34c-6.01,0 -10.89,-4.88 -10.89,-10.89l0 -43.38c0,-6 4.88,-10.89 10.89,-10.89 6,0 10.9,4.89 10.9,10.89l0 43.38c0,6.01 -4.89,10.89 -10.9,10.89z"/>
   <path class="fil2" d="M211.85 1.91l0 0c4.93,0 8.98,4.04 8.98,8.99l0 43.38c0,4.94 -4.05,8.98 -8.98,8.98l0 0c-4.94,0 -8.98,-4.04 -8.98,-8.98l0 -43.38c0,-4.94 4.03,-8.99 8.98,-8.99z"/>
   <path class="fil1" d="M211.85 3.82c-3.9,0 -7.07,3.17 -7.07,7.07l0 43.38c0,3.9 3.17,7.07 7.07,7.07 3.9,0 7.08,-3.17 7.08,-7.07l0 -43.38c0,-3.9 -3.18,-7.07 -7.08,-7.07zm0 61.34c-6,0 -10.88,-4.88 -10.88,-10.89l0 -43.38c0,-6 4.88,-10.89 10.88,-10.89 6,0 10.89,4.89 10.89,10.89l0 43.38c0,6.01 -4.89,10.89 -10.89,10.89z"/>
   <path class="fil2" d="M286.13 1.91l0 0c4.93,0 8.98,4.04 8.98,8.99l0 43.38c0,4.94 -4.04,8.98 -8.98,8.98l0 0c-4.94,0 -8.99,-4.04 -8.99,-8.98l0 -43.38c0,-4.94 4.04,-8.99 8.99,-8.99z"/>
   <path class="fil1" d="M286.13 3.82c-3.91,0 -7.08,3.17 -7.08,7.07l0 43.38c0,3.9 3.17,7.07 7.08,7.07 3.9,0 7.07,-3.17 7.07,-7.07l0 -43.38c0,-3.9 -3.17,-7.07 -7.07,-7.07zm0 61.34c-6,0 -10.89,-4.88 -10.89,-10.89l0 -43.38c0,-6 4.89,-10.89 10.89,-10.89 6,0 10.88,4.89 10.88,10.89l0 43.38c0,6.01 -4.88,10.89 -10.88,10.89z"/>
   <path class="fil2" d="M360.39 1.91l0 0c4.94,0 8.98,4.04 8.98,8.99l0 43.38c0,4.94 -4.03,8.98 -8.98,8.98l0 0c-4.94,0 -8.98,-4.04 -8.98,-8.98l0 -43.38c0,-4.94 4.04,-8.99 8.98,-8.99z"/>
   <path class="fil1" d="M360.39 3.82c-3.9,0 -7.07,3.17 -7.07,7.07l0 43.38c0,3.9 3.17,7.07 7.07,7.07 3.9,0 7.07,-3.17 7.07,-7.07l0 -43.38c0,-3.9 -3.17,-7.07 -7.07,-7.07zm0 61.34c-6,0 -10.9,-4.88 -10.9,-10.89l0 -43.38c0,-6 4.9,-10.89 10.9,-10.89 6,0 10.89,4.89 10.89,10.89l0 43.38c0,6.01 -4.89,10.89 -10.89,10.89z"/>
   <path class="fil4" d="M212.57 120.63c4.02,0 7.28,3.26 7.28,7.27 0,4.03 -3.26,7.29 -7.28,7.29 -4.02,0 -7.27,-3.26 -7.27,-7.29 0,-4.02 3.26,-7.27 7.27,-7.27z"/>
   <path class="fil5" d="M212.57 122.53c-2.96,0 -5.37,2.42 -5.37,5.37 0,2.97 2.41,5.38 5.37,5.38 2.97,0 5.37,-2.41 5.37,-5.38 0,-2.96 -2.41,-5.37 -5.37,-5.37zm0 14.56c-5.07,0 -9.19,-4.12 -9.19,-9.19 0,-5.06 4.12,-9.19 9.19,-9.19 5.07,0 9.19,4.13 9.19,9.19 0,5.07 -4.12,9.19 -9.19,9.19z"/>
   <path class="fil4" d="M213.29 447.15c4.02,0 7.27,3.26 7.27,7.28 0,4.02 -3.25,7.28 -7.27,7.28 -4.03,0 -7.27,-3.26 -7.27,-7.28 0,-4.02 3.24,-7.28 7.27,-7.28z"/>
   <path class="fil5" d="M213.29 449.07c-2.97,0 -5.37,2.4 -5.37,5.36 0,2.96 2.41,5.37 5.37,5.37 2.97,0 5.37,-2.41 5.37,-5.37 0,-2.97 -2.41,-5.36 -5.37,-5.36zm0 14.55c-5.07,0 -9.19,-4.13 -9.19,-9.19 0,-5.07 4.12,-9.19 9.19,-9.19 5.07,0 9.19,4.12 9.19,9.19 0,5.06 -4.12,9.19 -9.19,9.19z"/>
  </g>
  <g id="_2189587164496">
   <polygon class="fil7" points="616.41,496.94 616.41,460.67 665.79,454.69 665.79,496.94 641.11,561.08 641.11,561.08 "/>
   <path class="fil5" d="M663.63 496.53l0 -39.4 -45.05 5.46 0 33.95 22.53 58.52 22.52 -58.52zm4.33 -41.95c0,0.03 0,0.07 0,0.1l0 42.26c0,0.27 -0.05,0.52 -0.14,0.78l-24.68 64.14c-0.33,0.83 -1.12,1.39 -2.02,1.39 -0.91,0 -1.7,-0.55 -2.03,-1.39l-24.68 -64.14c-0.1,-0.26 -0.14,-0.51 -0.14,-0.78l0 -36.27c0,-1.1 0.81,-2.02 1.9,-2.15l48.73 -5.89c0.27,-0.14 0.59,-0.21 0.91,-0.21 1.2,0 2.17,0.97 2.17,2.17z"/>
   <path class="fil0" d="M616.45 496.95c1.18,-7.29 10.94,-6.87 12.34,0l-0.05 -482.47 -12.33 0 0.04 482.47z"/>
   <path class="fil5" d="M618.62 490.39c1.15,-0.6 2.42,-0.9 3.62,-0.92 1.6,-0.03 3.09,0.35 4.39,1.07l-0.05 -473.9 -8 0 0.04 473.75zm12.34 6.56c0,1.11 -0.85,2.04 -1.95,2.16 -1.11,0.11 -2.12,-0.64 -2.34,-1.72 -0.51,-2.52 -2.54,-3.62 -4.33,-3.59 -0.75,0.02 -3.22,0.32 -3.74,3.49 -0.17,1.12 -1.18,1.9 -2.3,1.82 -1.13,-0.1 -1.99,-1.04 -1.99,-2.16l-0.05 -482.47c0,-0.57 0.22,-1.12 0.64,-1.53 0.4,-0.41 0.94,-0.64 1.53,-0.64l12.33 0c1.19,0 2.17,0.97 2.17,2.17l0.05 482.47z"/>
   <path class="fil0" d="M628.75 496.94l0 0c1.92,-8.54 21.21,-10.52 24.7,-0.09l0 -482.37 -24.7 0 0 482.46z"/>
   <path class="fil5" d="M651.29 490.51l0 -473.87 -20.37 0 0 473.9c2.67,-1.79 6.13,-2.75 9.4,-2.91 4.32,-0.22 8.16,0.84 10.97,2.88zm4.32 -476.03l0 482.37c0,1.06 -0.77,1.97 -1.81,2.14 -1.05,0.16 -2.07,-0.44 -2.4,-1.45 -1.5,-4.46 -6.78,-5.8 -10.86,-5.59 -4.95,0.26 -9.02,2.55 -9.67,5.46 -0.24,1.08 -1.25,1.81 -2.35,1.68 -1.1,-0.12 -1.92,-1.05 -1.92,-2.15l0 -482.46c0,-1.19 0.97,-2.17 2.15,-2.17l24.7 0c1.19,0 2.15,0.97 2.15,2.17z"/>
   <path class="fil0" d="M653.45 496.85c1.17,-7.29 10.95,-6.88 12.35,0l-0.05 -482.37 -12.35 0 0.05 482.37z"/>
   <path class="fil5" d="M655.61 490.28c1.09,-0.56 2.31,-0.88 3.64,-0.91 1.59,-0.03 3.08,0.36 4.38,1.08l-0.04 -473.81 -8.01 0 0.04 473.64zm12.36 6.57c0,1.11 -0.85,2.04 -1.95,2.15 -1.11,0.11 -2.12,-0.63 -2.34,-1.72 -0.51,-2.53 -2.55,-3.62 -4.34,-3.58 -0.75,0.01 -3.23,0.31 -3.74,3.49 -0.18,1.12 -1.2,1.91 -2.31,1.82 -1.13,-0.09 -1.99,-1.03 -1.99,-2.16l-0.05 -482.37c0,-0.57 0.23,-1.12 0.63,-1.53 0.41,-0.41 0.95,-0.64 1.53,-0.64l12.35 0c1.19,0 2.17,0.97 2.17,2.17l0.05 482.37z"/>
   <polygon class="fil0" points="648.99,540.57 641.11,561.08 641.11,561.08 633.2,540.57 "/>
   <path class="fil5" d="M641.11 555.05l4.73 -12.32 -9.48 0 4.75 12.32zm10.05 -14.48c0,0.26 -0.05,0.53 -0.14,0.78l-7.89 20.5c-0.33,0.83 -1.12,1.39 -2.02,1.39 -0.91,0 -1.7,-0.55 -2.03,-1.39l-7.89 -20.5c-0.26,-0.67 -0.15,-1.42 0.24,-2 0.41,-0.59 1.07,-0.94 1.78,-0.94l15.79 0c0.71,0 1.39,0.35 1.78,0.94 0.25,0.36 0.38,0.79 0.38,1.22z"/>
   <polygon class="fil0" points="665.76,48 665.76,34.09 616.41,34.09 616.41,48 "/>
   <path class="fil5" d="M663.59 45.84l0 -9.59 -45.01 0 0 9.59 45.01 0zm4.34 -11.75l0 13.91c0,1.19 -0.97,2.17 -2.16,2.17l-49.35 0c-1.19,0 -2.17,-0.97 -2.17,-2.17l0 -13.91c0,-1.2 0.97,-2.16 2.17,-2.16l49.35 0c1.19,0 2.16,0.97 2.16,2.16z"/>
  </g>
  <g id="_2189587137904">
   <path class="fil1" d="M557.21 496.53l0 -39.4 -45.05 5.46 0 33.95 22.53 58.52 22.52 -58.52zm4.33 -41.95c0,0.03 0,0.07 0,0.1l0 42.26c0,0.27 -0.05,0.52 -0.15,0.78l-24.68 64.14c-0.33,0.83 -1.12,1.39 -2.02,1.39 -0.9,0 -1.7,-0.55 -2.03,-1.39l-24.69 -64.14c-0.09,-0.26 -0.14,-0.51 -0.14,-0.78l0 -36.27c0,-1.1 0.81,-2.02 1.9,-2.15l48.73 -5.89c0.27,-0.14 0.59,-0.21 0.92,-0.21 1.19,0 2.17,0.97 2.17,2.17z"/>
   <path class="fil2" d="M510.04 496.95c1.17,-7.29 10.94,-6.87 12.34,0l-0.05 -482.47 -12.33 0 0.04 482.47z"/>
   <path class="fil1" d="M512.2 490.39c1.15,-0.6 2.42,-0.9 3.62,-0.92 1.6,-0.03 3.09,0.35 4.39,1.07l-0.05 -473.9 -8 0 0.04 473.75zm12.34 6.56c0,1.11 -0.85,2.04 -1.95,2.16 -1.11,0.11 -2.12,-0.64 -2.34,-1.72 -0.51,-2.52 -2.54,-3.62 -4.33,-3.59 -0.75,0.02 -3.22,0.32 -3.74,3.49 -0.17,1.12 -1.18,1.9 -2.3,1.82 -1.13,-0.1 -1.99,-1.04 -1.99,-2.16l-0.05 -482.47c0,-0.57 0.23,-1.12 0.64,-1.53 0.4,-0.41 0.94,-0.64 1.53,-0.64l12.33 0c1.19,0 2.17,0.97 2.17,2.17l0.05 482.47z"/>
   <path class="fil2" d="M522.34 496.94l0 0c1.92,-8.54 21.21,-10.52 24.7,-0.09l0 -482.37 -24.7 0 0 482.46z"/>
   <path class="fil1" d="M544.87 490.51l0 -473.87 -20.37 0 0 473.9c2.66,-1.79 6.13,-2.75 9.4,-2.91 4.32,-0.22 8.16,0.84 10.97,2.88zm4.32 -476.03l0 482.37c0,1.06 -0.77,1.97 -1.81,2.14 -1.05,0.16 -2.07,-0.44 -2.4,-1.45 -1.5,-4.46 -6.78,-5.8 -10.86,-5.59 -4.95,0.26 -9.01,2.55 -9.67,5.46 -0.24,1.08 -1.25,1.81 -2.35,1.68 -1.1,-0.12 -1.92,-1.05 -1.92,-2.15l0 -482.46c0,-1.19 0.97,-2.17 2.15,-2.17l24.7 0c1.19,0 2.16,0.97 2.16,2.17z"/>
   <path class="fil2" d="M547.04 496.85c1.17,-7.29 10.95,-6.88 12.35,0l-0.05 -482.37 -12.35 0 0.05 482.37z"/>
   <path class="fil1" d="M549.2 490.28c1.09,-0.56 2.31,-0.88 3.64,-0.91 1.59,-0.03 3.08,0.36 4.38,1.08l-0.04 -473.81 -8.01 0 0.04 473.64zm12.36 6.57c0,1.11 -0.85,2.04 -1.96,2.15 -1.1,0.11 -2.12,-0.63 -2.34,-1.72 -0.51,-2.53 -2.55,-3.62 -4.34,-3.58 -0.75,0.01 -3.23,0.31 -3.74,3.49 -0.18,1.12 -1.19,1.91 -2.31,1.82 -1.13,-0.09 -1.99,-1.03 -1.99,-2.16l-0.05 -482.37c0,-0.57 0.23,-1.12 0.64,-1.53 0.4,-0.41 0.95,-0.64 1.53,-0.64l12.35 0c1.19,0 2.17,0.97 2.17,2.17l0.05 482.37z"/>
   <polygon class="fil2" points="542.58,540.57 534.69,561.08 534.69,561.08 526.79,540.57 "/>
   <path class="fil1" d="M534.69 555.05l4.73 -12.32 -9.48 0 4.75 12.32zm10.06 -14.48c0,0.26 -0.05,0.53 -0.15,0.78l-7.89 20.5c-0.33,0.83 -1.12,1.39 -2.02,1.39 -0.9,0 -1.7,-0.55 -2.03,-1.39l-7.89 -20.5c-0.26,-0.67 -0.15,-1.42 0.25,-2 0.4,-0.59 1.06,-0.94 1.78,-0.94l15.79 0c0.71,0 1.39,0.35 1.78,0.94 0.25,0.36 0.39,0.79 0.39,1.22z"/>
   <polygon class="fil2" points="559.35,48 559.35,34.09 510,34.09 510,48 "/>
   <path class="fil1" d="M557.17 45.84l0 -9.59 -45.01 0 0 9.59 45.01 0zm4.34 -11.75l0 13.91c0,1.19 -0.97,2.17 -2.16,2.17l-49.35 0c-1.19,0 -2.17,-0.97 -2.17,-2.17l0 -13.91c0,-1.2 0.97,-2.16 2.17,-2.16l49.35 0c1.19,0 2.16,0.97 2.16,2.16z"/>
  </g>
 </g>
</svg>
