<?xml version="1.0" encoding="UTF-8"?>
<!DOCTYPE svg PUBLIC "-//W3C//DTD SVG 1.1//EN" "http://www.w3.org/Graphics/SVG/1.1/DTD/svg11.dtd">
<!-- Creator: CorelDRAW 2020 (64-Bit) -->
<svg xmlns="http://www.w3.org/2000/svg" xml:space="preserve" width="29.8292mm" height="20mm" version="1.1" style="shape-rendering:geometricPrecision; text-rendering:geometricPrecision; image-rendering:optimizeQuality; fill-rule:evenodd; clip-rule:evenodd"
viewBox="0 0 1085.18 727.6"
 xmlns:xlink="http://www.w3.org/1999/xlink"
 xmlns:xodm="http://www.corel.com/coreldraw/odm/2003">
 <defs>
  <style type="text/css">
   <![CDATA[
    .fil6 {fill:#C5C6C6;fill-rule:nonzero}
    .fil2 {fill:#F9C18B;fill-rule:nonzero}
    .fil10 {fill:#D4A779;fill-rule:nonzero}
    .fil7 {fill:#D4A779;fill-rule:nonzero}
    .fil8 {fill:#C0986F;fill-rule:nonzero}
    .fil9 {fill:#AD8A65;fill-rule:nonzero}
    .fil4 {fill:#EF7F1A;fill-rule:nonzero}
    .fil1 {fill:#94B275;fill-rule:nonzero}
    .fil0 {fill:#1B6C41;fill-rule:nonzero}
    .fil3 {fill:white;fill-rule:nonzero}
    .fil11 {fill:url(#id0);fill-rule:nonzero}
    .fil5 {fill:url(#id1);fill-rule:nonzero}
   ]]>
  </style>
  <linearGradient id="id0" gradientUnits="userSpaceOnUse" x1="895.21" y1="315.81" x2="1007.3" y2="315.81">
   <stop offset="0" style="stop-opacity:1; stop-color:#EF7F1A"/>
   <stop offset="1" style="stop-opacity:1; stop-color:#1B6C41"/>
  </linearGradient>
  <linearGradient id="id1" gradientUnits="userSpaceOnUse" xlink:href="#id0" x1="93.77" y1="368.33" x2="275.05" y2="368.33">
  </linearGradient>
 </defs>
 <g id="Layer_x0020_1">
  <metadata id="CorelCorpID_0Corel-Layer"/>
  <g id="_2189555419232">
   <polygon class="fil0" points="386.22,658.38 380.06,652.21 380.06,650.97 379.45,651.59 378.84,650.97 378.84,652.21 372.69,658.38 255.85,727.6 503.05,727.6 "/>
   <polygon class="fil0" points="337.43,679.8 421.47,679.8 421.47,622.12 337.43,622.12 "/>
   <polygon class="fil1" points="-0,640.26 758.9,640.26 758.9,126.07 -0,126.07 "/>
   <polygon class="fil2" points="32.84,594.94 726.07,594.94 726.07,170.57 32.84,170.57 "/>
   <polygon class="fil3" points="57.55,594.94 701.36,594.94 701.36,241.43 57.55,241.43 "/>
   <polygon class="fil4" points="32.84,194.48 726.07,194.48 726.07,170.57 32.84,170.57 "/>
   <polygon class="fil0" points="32.84,594.94 726.07,594.94 726.07,552.91 32.84,552.91 "/>
   <polygon class="fil5" points="93.77,458.97 275.05,458.97 275.05,277.69 93.77,277.69 "/>
   <polygon class="fil4" points="347.56,287.58 663.97,287.58 663.97,277.69 347.56,277.69 "/>
   <polygon class="fil4" points="347.56,317.24 663.97,317.24 663.97,307.35 347.56,307.35 "/>
   <polygon class="fil4" points="347.56,346.91 663.97,346.91 663.97,337.02 347.56,337.02 "/>
   <polygon class="fil4" points="347.56,376.56 663.97,376.56 663.97,366.68 347.56,366.68 "/>
   <polygon class="fil4" points="347.56,406.24 663.97,406.24 663.97,396.34 347.56,396.34 "/>
   <polygon class="fil4" points="347.56,435.9 663.97,435.9 663.97,426 347.56,426 "/>
   <polygon class="fil4" points="347.56,465.57 663.97,465.57 663.97,455.68 347.56,455.68 "/>
   <polygon class="fil4" points="347.56,495.22 663.97,495.22 663.97,485.33 347.56,485.33 "/>
   <polygon class="fil4" points="347.56,524.88 663.97,524.88 663.97,515.01 347.56,515.01 "/>
   <path class="fil4" d="M361.47 215.86c0,0 -81.71,-10.22 -104.18,36.76 -22.46,46.98 -32.68,132.79 -55.15,136.86 -22.48,4.09 159.34,36.78 218.57,-93.97 59.25,-130.73 -59.23,-79.65 -59.23,-79.65z"/>
   <path class="fil0" d="M449.31 147.08c0,0 42.22,-33.36 106.9,-73.54 63.89,-39.67 144.36,-73.54 144.36,-73.54 0,0 -40.47,67.11 -95.33,121.2 -48.35,47.67 -96.69,94.66 -96.69,94.66l-59.24 -68.78z"/>
   <path class="fil4" d="M627.72 44.95c0,0 -108.27,52.42 -179.77,117.79 -71.49,65.37 19.07,8.17 19.07,8.17 0,0 90.56,-84.44 160.7,-125.97z"/>
   <polygon class="fil6" points="424.01,291.03 360.35,214.51 449.49,140.37 513.13,216.89 "/>
   <polygon class="fil0" points="424.01,291.03 360.35,214.51 390.06,189.79 453.71,266.32 "/>
   <polygon class="fil3" points="447.94,151.17 398.92,191.35 410.5,204.96 458.16,164.11 "/>
   <polygon class="fil3" points="369.64,216.36 423.76,284.8 448.29,265.39 424.29,279.7 "/>
   <path class="fil7" d="M349.9 227.42c0,0 -54.47,-8.84 -72.18,23.16 -17.7,31.99 29.96,14.3 72.18,-23.16z"/>
   <path class="fil8" d="M522.15 639.63l133.52 0c-9.24,-8.25 -18.74,-16.4 -28.22,-24.09 -9.06,-7.32 -17.78,-14.2 -26.08,-20.6l-168.25 0 44.79 27 2.03 -3.4c5.89,2.96 21.53,10.79 42.2,21.1z"/>
   <path class="fil2" d="M544.02 552.91l-207.15 0c-50.73,-16.92 -83.11,-57 -102.37,-93.94l40.55 0 0 -65.09c1.47,-0.19 2.94,-0.4 4.43,-0.62 3.91,-0.22 7.88,-0.46 11.89,-0.7 14.7,-0.87 29.9,-1.74 44.11,-1.74 8.71,0 17.05,0.33 24.67,1.18 5.63,0.63 10.85,2.15 15.68,4.34l-28.26 0 0 9.9 43.33 0c6.45,5.66 11.95,12.54 16.6,19.76l-59.93 0 0 9.9 65.71 0c3.63,6.85 6.56,13.67 8.86,19.77l-74.57 0 0 9.9 78.01 0c2.43,7.68 3.52,12.75 3.52,12.75l0 0.01 0.9 -1.49 14.1 8.5 -96.52 0 0 9.89 112.94 0 32.81 19.78 -145.75 0 0 9.88 162.14 0 19.58 11.81 -2.68 4.45c3.53,2.31 9.49,6.29 17.41,11.77z"/>
   <path class="fil9" d="M601.38 594.94l-168.25 0 -21.42 -12.92 -33.1 -19.94 0.69 -1.15c-1.95,-0.13 -3.95,-0.3 -6.01,-0.48 -13.07,-1.19 -25.19,-3.8 -36.41,-7.53l207.15 0c13.92,9.63 33.9,23.91 57.36,42.03z"/>
   <path class="fil10" d="M275.05 458.97l-40.55 0c-13.83,-26.52 -20.89,-51.42 -23.13,-64.99 7.24,1.16 17.63,2.08 30.03,2.08 10.09,0 21.51,-0.6 33.64,-2.18l0 65.09z"/>
   <path class="fil7" d="M390.89 406.24l-43.33 0 0 -9.9 28.26 0c5.52,2.51 10.52,5.91 15.06,9.9z"/>
   <path class="fil7" d="M413.27 435.9l-65.71 0 0 -9.9 59.93 0c2.1,3.25 4.02,6.58 5.78,9.9z"/>
   <path class="fil7" d="M425.57 465.57l-78.01 0 0 -9.9 74.57 0c1.36,3.59 2.49,6.93 3.44,9.9z"/>
   <polygon class="fil7" points="460.5,495.22 347.56,495.22 347.56,485.34 444.08,485.34 "/>
   <polygon class="fil7" points="509.71,524.88 347.56,524.88 347.56,515 493.31,515 "/>
   <path class="fil2" d="M241.41 396.06c-12.4,0 -22.79,-0.92 -30.03,-2.08 -1.11,-6.7 -1.04,-10.65 -0.02,-10.65 0.35,0 0.83,0.49 1.4,1.51 4.18,7.38 18.46,9.46 37.41,9.46 8.92,0 18.88,-0.45 29.31,-1.04 -1.48,0.22 -2.96,0.43 -4.43,0.62 -12.14,1.58 -23.55,2.18 -33.64,2.18z"/>
   <path class="fil1" d="M1085.18 578.52c0,40.35 -32.69,73.05 -73.04,73.05l-121.75 0c-40.35,0 -73.05,-32.71 -73.05,-73.05l0 -376.05c0,-40.35 32.71,-73.05 73.05,-73.05l121.75 0c40.35,0 73.04,32.7 73.04,73.05l0 376.05z"/>
   <polygon class="fil0" points="843.04,575.82 1059.47,575.82 1059.47,207.87 843.04,207.87 "/>
   <polygon class="fil3" points="853.85,575.82 1048.66,575.82 1048.66,226.81 853.85,226.81 "/>
   <polygon class="fil0" points="843.04,575.82 1059.47,575.82 1059.47,541.99 843.04,541.99 "/>
   <path class="fil0" d="M951.27 632.98c-10.94,0 -19.77,-8.88 -19.77,-19.8 0,-10.92 8.84,-19.79 19.77,-19.79 10.91,0 19.79,8.87 19.79,19.79 0,10.92 -8.88,19.8 -19.79,19.8z"/>
   <path class="fil0" d="M989.14 167.29l-75.74 0c-1.9,0 -3.41,-1.5 -3.41,-3.38 0,-1.86 1.51,-3.38 3.41,-3.38l75.74 0c1.87,0 3.38,1.52 3.38,3.38 0,1.88 -1.51,3.38 -3.38,3.38z"/>
   <polygon class="fil11" points="895.21,371.85 1007.3,371.85 1007.3,259.77 895.21,259.77 "/>
   <polygon class="fil4" points="881.21,399.87 1021.3,399.87 1021.3,389.98 881.21,389.98 "/>
   <polygon class="fil4" points="881.21,429.53 1021.3,429.53 1021.3,419.64 881.21,419.64 "/>
   <polygon class="fil4" points="881.21,459.2 1021.3,459.2 1021.3,449.32 881.21,449.32 "/>
   <polygon class="fil4" points="881.21,488.85 1021.3,488.85 1021.3,478.97 881.21,478.97 "/>
   <polygon class="fil4" points="881.21,518.53 1021.3,518.53 1021.3,508.64 881.21,508.64 "/>
  </g>
 </g>
</svg>
