<?xml version="1.0" encoding="UTF-8"?>
<!DOCTYPE svg PUBLIC "-//W3C//DTD SVG 1.1//EN" "http://www.w3.org/Graphics/SVG/1.1/DTD/svg11.dtd">
<!-- Creator: CorelDRAW 2020 (64-Bit) -->
<svg xmlns="http://www.w3.org/2000/svg" xml:space="preserve" width="23.8084mm" height="20mm" version="1.1" style="shape-rendering:geometricPrecision; text-rendering:geometricPrecision; image-rendering:optimizeQuality; fill-rule:evenodd; clip-rule:evenodd"
viewBox="0 0 316.08 265.52"
 xmlns:xlink="http://www.w3.org/1999/xlink"
 xmlns:xodm="http://www.corel.com/coreldraw/odm/2003">
 <defs>
  <style type="text/css">
   <![CDATA[
    .fil3 {fill:#F9C18B}
    .fil4 {fill:#EF7F1A}
    .fil2 {fill:#94B275}
    .fil0 {fill:#1B6C41}
    .fil1 {fill:#1B6C41;fill-rule:nonzero}
   ]]>
  </style>
 </defs>
 <g id="Layer_x0020_1">
  <metadata id="CorelCorpID_0Corel-Layer"/>
  <g id="_2189835863840">
   <polygon class="fil0" points="105.78,255.37 210.3,255.37 214.27,261.36 214.27,264.35 101.81,264.35 101.81,261.36 "/>
   <path class="fil1" d="M102.99 263.17l110.1 0 0 -1.46 -3.42 -5.16 -103.26 0 -3.42 5.16 0 1.46zm111.27 2.35l-112.45 0c-0.65,0 -1.18,-0.52 -1.18,-1.17l0 -2.99c0,-0.23 0.07,-0.46 0.19,-0.65l3.97 -5.98c0.22,-0.33 0.59,-0.53 0.98,-0.53l104.52 0c0.39,0 0.76,0.2 0.98,0.53l3.97 5.98c0.13,0.19 0.19,0.42 0.19,0.65l0 2.99c0,0.65 -0.53,1.17 -1.18,1.17z"/>
   <polygon class="fil2" points="115.38,255.37 200.7,255.37 200.7,213.65 115.38,213.65 "/>
   <path class="fil1" d="M116.56 254.2l82.96 0 0 -39.37 -82.96 0 0 39.37zm84.14 2.35l-85.32 0c-0.65,0 -1.18,-0.53 -1.18,-1.18l0 -41.73c0,-0.65 0.53,-1.17 1.18,-1.17l85.32 0c0.65,0 1.18,0.53 1.18,1.17l0 41.73c0,0.65 -0.53,1.18 -1.18,1.18z"/>
   <path class="fil2" d="M12.31 1.18l291.46 0c6.13,0 11.13,5 11.13,11.14l0 205.8c0,6.13 -5,11.14 -11.13,11.14l-291.46 0c-6.13,0 -11.13,-5 -11.13,-11.14l0 -205.8c0,-6.13 5,-11.14 11.13,-11.14z"/>
   <path class="fil1" d="M12.31 2.36c-5.49,0 -9.96,4.47 -9.96,9.96l0 205.8c0,5.49 4.47,9.96 9.96,9.96l291.46 0c5.49,0 9.96,-4.47 9.96,-9.96l0 -205.8c0,-5.49 -4.47,-9.96 -9.96,-9.96l-291.46 0zm291.46 228.07l-291.46 0c-6.79,0 -12.31,-5.53 -12.31,-12.31l0 -205.8c0,-6.79 5.52,-12.31 12.31,-12.31l291.46 0c6.79,0 12.31,5.53 12.31,12.31l0 205.8c0,6.79 -5.52,12.31 -12.31,12.31z"/>
   <path class="fil3" d="M12.31 5.3l291.46 0c3.86,0 7.02,3.16 7.02,7.02l0 192.64 -305.5 0 0 -192.64c0,-3.86 3.16,-7.02 7.02,-7.02z"/>
   <path class="fil1" d="M6.47 203.78l303.15 0 0 -191.47c0,-3.22 -2.62,-5.85 -5.84,-5.85l-291.46 0c-3.22,0 -5.84,2.62 -5.84,5.85l0 191.47zm304.32 2.35l-305.5 0c-0.65,0 -1.17,-0.53 -1.17,-1.18l0 -192.64c0,-4.52 3.68,-8.2 8.19,-8.2l291.46 0c4.52,0 8.2,3.68 8.2,8.2l0 192.64c0,0.65 -0.53,1.18 -1.18,1.18z"/>
   <polygon class="fil2" points="17.11,191.5 298.98,191.5 298.98,19.35 17.11,19.35 "/>
   <path class="fil1" d="M18.28 190.33l279.52 0 0 -169.8 -279.52 0 0 169.8zm280.69 2.35l-281.87 0c-0.65,0 -1.17,-0.53 -1.17,-1.18l0 -172.16c0,-0.65 0.52,-1.18 1.17,-1.18l281.87 0c0.65,0 1.17,0.53 1.17,1.18l0 172.16c0,0.65 -0.52,1.18 -1.17,1.18z"/>
   <polygon class="fil4" points="17.11,49.66 298.98,49.66 298.98,19.35 17.11,19.35 "/>
   <path class="fil1" d="M18.28 48.49l279.52 0 -0 -27.97 -279.52 0 0 27.97zm280.75 2.35c-0.02,-0.01 -0.04,-0.01 -0.06,0l-281.87 0c-0.65,0 -1.17,-0.53 -1.17,-1.18l0 -30.32c0,-0.65 0.52,-1.18 1.17,-1.18l281.87 0c0.65,0 1.17,0.53 1.17,1.18l0 29.95c0.04,0.12 0.06,0.24 0.06,0.37 0,0.65 -0.53,1.18 -1.18,1.18z"/>
   <polygon class="fil4" points="58.89,168.25 257.19,168.25 257.19,59.72 58.89,59.72 "/>
   <path class="fil1" d="M60.07 167.07l195.95 0 0 -106.18 -195.95 0 0 106.18zm197.12 2.35l-198.3 0c-0.65,0 -1.18,-0.53 -1.18,-1.18l0 -108.53c0,-0.65 0.53,-1.17 1.18,-1.17l198.3 0c0.65,0 1.18,0.52 1.18,1.17l0 108.53c0,0.65 -0.53,1.18 -1.18,1.18z"/>
   <path class="fil3" d="M5.29 204.96l305.5 0 0 13.16c0,3.86 -3.16,7.02 -7.02,7.02l-291.46 0c-3.86,0 -7.02,-3.16 -7.02,-7.02l0 -13.16z"/>
   <path class="fil1" d="M6.47 206.13l0 11.98c0,3.22 2.62,5.84 5.84,5.84l291.46 0c3.22,0 5.84,-2.62 5.84,-5.84l0 -11.98 -303.15 0zm297.3 20.18l-291.46 0c-4.52,0 -8.19,-3.68 -8.19,-8.2l0 -13.16c0,-0.65 0.52,-1.18 1.17,-1.18l305.5 0c0.65,0 1.18,0.53 1.18,1.18l0 13.16c0,4.52 -3.68,8.2 -8.2,8.2z"/>
   <polygon class="fil3" points="68.85,109.64 123.29,109.64 123.29,69.77 68.85,69.77 "/>
   <path class="fil1" d="M70.03 108.47l52.09 0 0 -37.52 -52.09 0 0 37.52zm53.26 2.35l-54.44 0c-0.65,0 -1.18,-0.53 -1.18,-1.18l0 -39.87c0,-0.65 0.53,-1.18 1.18,-1.18l54.44 0c0.65,0 1.17,0.53 1.17,1.18l0 39.87c0,0.65 -0.52,1.18 -1.17,1.18z"/>
   <polygon class="fil3" points="68.85,122.3 123.29,122.3 123.29,114.24 68.85,114.24 "/>
   <path class="fil1" d="M70.03 121.12l52.09 0 0 -5.7 -52.09 0 0 5.7zm53.26 2.35l-54.44 0c-0.65,0 -1.18,-0.53 -1.18,-1.17l0 -8.05c0,-0.65 0.53,-1.18 1.18,-1.18l54.44 0c0.65,0 1.17,0.53 1.17,1.18l0 8.05c0,0.65 -0.52,1.17 -1.17,1.17z"/>
   <polygon class="fil2" points="130.65,109.64 185.09,109.64 185.09,69.77 130.65,69.77 "/>
   <path class="fil1" d="M131.83 108.47l52.09 0 0 -37.52 -52.09 0 0 37.52zm53.26 2.35l-54.44 0c-0.65,0 -1.18,-0.53 -1.18,-1.18l0 -39.87c0,-0.65 0.53,-1.18 1.18,-1.18l54.44 0c0.65,0 1.17,0.53 1.17,1.18l0 39.87c0,0.65 -0.53,1.18 -1.17,1.18z"/>
   <polygon class="fil2" points="130.65,122.3 185.09,122.3 185.09,114.24 130.65,114.24 "/>
   <path class="fil1" d="M131.83 121.12l52.09 0 0 -5.7 -52.09 0 0 5.7zm53.26 2.35l-54.44 0c-0.65,0 -1.18,-0.53 -1.18,-1.17l0 -8.05c0,-0.65 0.53,-1.18 1.18,-1.18l54.44 0c0.65,0 1.17,0.53 1.17,1.18l0 8.05c0,0.65 -0.53,1.17 -1.17,1.17z"/>
   <polygon class="fil0" points="177.54,149.82 181.21,147.74 172.8,132.89 182.93,127.16 166.97,115.34 151.52,103.9 151.23,103.39 151.27,103.7 151.02,103.52 151.3,104.02 153.17,123.15 155.11,142.91 165.46,137.05 173.87,151.9 177.54,149.82 "/>
   <path class="fil1" d="M165.46 135.88c0.11,0 0.21,0.02 0.31,0.04 0.3,0.08 0.56,0.28 0.71,0.55l7.83 13.83 5.29 -3 -7.83 -13.82c-0.16,-0.27 -0.2,-0.6 -0.11,-0.89 0.08,-0.3 0.28,-0.55 0.55,-0.71l8.55 -4.84 -28.07 -20.8 3.41 34.77 8.77 -4.97c0.18,-0.1 0.38,-0.15 0.58,-0.15zm8.41 17.2c-0.11,0 -0.21,-0.01 -0.31,-0.04 -0.3,-0.08 -0.55,-0.28 -0.71,-0.55l-7.83 -13.82 -9.33 5.28c-0.34,0.19 -0.77,0.21 -1.12,0.02 -0.35,-0.18 -0.59,-0.53 -0.63,-0.93l-3.94 -38.93c-0.27,-0.49 -0.17,-1.09 0.24,-1.46 0.1,-0.08 0.2,-0.15 0.31,-0.2 0.1,-0.07 0.22,-0.13 0.33,-0.17 0.53,-0.17 1.11,0.06 1.38,0.54l0.16 0.29 31.2 23.12c0.32,0.24 0.5,0.62 0.48,1.02 -0.03,0.4 -0.25,0.76 -0.6,0.95l-9.1 5.16 7.83 13.83c0.32,0.57 0.12,1.29 -0.44,1.61l-7.34 4.16c-0.18,0.1 -0.38,0.15 -0.58,0.15z"/>
   <polygon class="fil3" points="192.45,109.64 246.89,109.64 246.89,69.77 192.45,69.77 "/>
   <path class="fil1" d="M193.63 108.47l52.08 0 0 -37.52 -52.08 0 0 37.52zm53.26 2.35l-54.44 0c-0.65,0 -1.18,-0.53 -1.18,-1.18l0 -39.87c0,-0.65 0.53,-1.18 1.18,-1.18l54.44 0c0.65,0 1.17,0.53 1.17,1.18l0 39.87c0,0.65 -0.53,1.18 -1.17,1.18z"/>
   <polygon class="fil3" points="192.45,122.3 246.89,122.3 246.89,114.24 192.45,114.24 "/>
   <path class="fil1" d="M193.63 121.12l52.08 0 0 -5.7 -52.08 0 0 5.7zm53.26 2.35l-54.44 0c-0.65,0 -1.18,-0.53 -1.18,-1.17l0 -8.05c0,-0.65 0.53,-1.18 1.18,-1.18l54.44 0c0.65,0 1.17,0.53 1.17,1.18l0 8.05c0,0.65 -0.53,1.17 -1.17,1.17z"/>
  </g>
 </g>
</svg>
